# xmcd CD database file
#
# Track frame offsets:
#	150
#	21877
#	44512
#	67497
#	90667
#	109400
#	130482
#	153265
#	170965
#	188942
#	211015
#
# Disc length: 3119 seconds
#
# Revision: 0
# Processed by: cddbd v1.5.1PL2 Copyright (c) Steve Scherf et al.
# Submitted via: CDex 1.51
#
DISCID=a60c2d0b
DTITLE=sinon - Talk to me
DYEAR=1995
DGENRE=J-Pop
TTITLE0=TALK
TTITLE1=バイト・ロック
TTITLE2=青空に逢いたい
TTITLE3=しあわせにしてよ
TTITLE4=恋は史上最強の魔法
TTITLE5=Good-bye
TTITLE6=帰り道
TTITLE7=あなただけいない
TTITLE8=I Stand Alone
TTITLE9=太陽は知っている
TTITLE10=月の記憶-fly to you
EXTD=YEAR: 1995
EXTT0=
EXTT1=
EXTT2=
EXTT3=
EXTT4=
EXTT5=
EXTT6=
EXTT7=
EXTT8=
EXTT9=
EXTT10=
PLAYORDER=
